<svg width="57" height="57" viewBox="0 0 57 57" fill="none" xmlns="http://www.w3.org/2000/svg">
<circle cx="28.5" cy="28.5" r="28.5" fill="#2B2727"/>
<g clip-path="url(#clip0)">
<path d="M15.5254 33.5049C15.3499 33.8662 15.4183 34.303 15.6947 34.5886L15.9168 34.8179C16.5585 34.033 17.3063 33.1812 18.2133 32.2451C18.2774 32.179 18.3434 32.147 18.4078 32.0859L16.979 30.6108C16.1484 32.1616 15.664 33.2212 15.5254 33.5049Z" fill="#4301FE"/>
<path d="M23.3509 37.5483C22.4417 38.4868 21.6186 39.2603 20.8625 39.9231L21.1634 40.2336C21.4424 40.5217 21.8696 40.5911 22.2208 40.4045C22.6912 40.1543 23.431 39.7949 25.0015 38.8921L23.5053 37.3477C23.4462 37.4143 23.4152 37.4822 23.3509 37.5483V37.5483Z" fill="#4301FE"/>
<path d="M22.8667 32.7461C22.2104 32.0686 20.3647 32.676 19.4976 33.5708C16.597 36.5649 15.287 38.6877 14.6988 39.9411C14.5302 40.3003 14.6004 40.7302 14.8738 41.0124C15.1477 41.2954 15.5649 41.3672 15.913 41.1931C17.1001 40.5981 19.1315 39.2522 22.0666 36.2226C23.02 35.238 23.4904 33.3901 22.8674 32.7468L22.8667 32.7461Z" fill="#4301FE"/>
<path d="M13.8348 25.4819L11.2661 28.1335C10.9756 28.4333 10.916 28.8974 11.1218 29.2651C11.3226 29.6279 11.7431 29.8127 12.1433 29.7021C13.5316 29.3179 14.7532 29.1555 15.5758 29.3733C16.746 27.2256 18.0036 25.2485 19.3354 23.4526C18.565 22.9429 16.0195 23.2268 13.8348 25.4819V25.4819Z" fill="#4301FE"/>
<path d="M26.3725 44.8994C26.7223 45.082 27.1459 45.0115 27.4229 44.7253L29.9919 42.0737C31.9807 40.0203 32.3307 37.3708 31.8795 36.5308C29.9391 38.0403 27.9735 39.3149 26.1396 40.3821C26.2661 41.1196 26.1819 41.8352 25.8827 43.925C25.8243 44.3296 26.0267 44.7209 26.3725 44.8994V44.8994Z" fill="#4301FE"/>
<path d="M29.0309 22.4043C27.9687 23.501 27.9687 25.2849 29.0309 26.3816C30.0933 27.4783 31.8217 27.4783 32.8842 26.3816C33.9466 25.2849 33.9466 23.501 32.8842 22.4043C31.8217 21.3076 30.0933 21.3076 29.0309 22.4043Z" fill="#4301FE"/>
<path d="M41.9466 13.9145C41.9139 13.4509 41.5563 13.0845 41.1086 13.0498C38.8781 12.8764 36.6563 13.1596 34.4785 13.8471C34.6424 15.3916 35.4162 17.063 36.7374 18.4267C38.0744 19.8066 39.7375 20.6052 41.2604 20.7546C41.847 18.6328 42.1251 16.3603 41.9466 13.9145V13.9145Z" fill="#4301FE"/>
<path d="M35.4531 19.7527C33.9418 18.1926 33.019 16.3215 32.7228 14.4998C27.2691 16.8086 22.0484 21.8506 17.9229 28.9336L19.9725 31.0493C21.3729 30.4624 23.0729 30.3074 24.1512 31.4202C25.2309 32.5349 25.0779 34.2891 24.5095 35.7327L26.6265 37.918C31.9059 34.6335 38.0524 29.459 40.6661 22.5745C38.8582 22.2925 36.989 21.3381 35.4531 19.7527V19.7527ZM34.1684 27.7075C32.3981 29.5349 29.5172 29.5349 27.7466 27.7075C25.9761 25.8799 25.9761 22.9058 27.7466 21.0784C29.5172 19.251 32.3981 19.251 34.1684 21.0784C35.9389 22.906 35.9389 25.8799 34.1684 27.7075Z" fill="#4301FE"/>
</g>
<defs>
<clipPath id="clip0">
<rect x="11" y="13" width="31" height="32" fill="white"/>
</clipPath>
</defs>
</svg>
