<svg width="29" height="29" viewBox="0 0 29 29" fill="none" xmlns="http://www.w3.org/2000/svg">
<path d="M5.34433 21.2973C5.20528 21.1105 4.94105 21.0718 4.75425 21.2108C4.56745 21.3499 4.5287 21.6141 4.66781 21.8009C5.78545 23.3024 7.25346 24.5473 8.91303 25.4012C10.6536 26.2967 12.5333 26.7508 14.5 26.7508C21.2551 26.7508 26.7509 21.2551 26.7509 14.4999C26.7509 7.74482 21.2551 2.24915 14.5 2.24915C7.74487 2.24915 2.24915 7.74487 2.24915 14.5C2.24915 16.424 2.68466 18.2671 3.5435 19.9782C3.64794 20.1863 3.90147 20.2703 4.10956 20.1659C4.31772 20.0614 4.40177 19.808 4.29733 19.5998C3.49796 18.0072 3.09258 16.2914 3.09258 14.5C3.09258 8.20995 8.20995 3.09258 14.5 3.09258C20.7901 3.09258 25.9074 8.20995 25.9074 14.5C25.9074 20.7901 20.7901 25.9074 14.5 25.9074C10.916 25.9074 7.49327 24.184 5.34433 21.2973V21.2973Z" fill="#4301FE"/>
<path d="M24.7531 4.24697C23.4521 2.94599 21.9483 1.91921 20.2835 1.19506C20.0698 1.10206 19.8214 1.19999 19.7286 1.41352C19.6357 1.62712 19.7335 1.8756 19.9471 1.96843C21.5144 2.65021 22.9308 3.61747 24.1567 4.84334C26.736 7.42275 28.1566 10.8522 28.1566 14.5C28.1566 18.1478 26.736 21.5772 24.1567 24.1567C21.5772 26.7361 18.1478 28.1566 14.5 28.1566C10.8522 28.1566 7.42275 26.7361 4.84334 24.1567C2.26398 21.5772 0.843436 18.1478 0.843436 14.5C0.843436 10.8522 2.26398 7.42275 4.84334 4.84334C7.42275 2.26393 10.8522 0.843436 14.5 0.843436C15.7041 0.843436 16.8971 0.998914 18.0458 1.30551C18.2709 1.36572 18.5019 1.23188 18.562 1.00684C18.6221 0.78181 18.4884 0.550717 18.2634 0.490678C17.0437 0.165051 15.7776 0 14.5 0C10.6269 0 6.98566 1.50828 4.24691 4.24697C1.50823 6.98566 0 10.627 0 14.5C0 18.373 1.50823 22.0143 4.24691 24.753C6.98566 27.4917 10.6269 29 14.5 29C18.3731 29 22.0143 27.4917 24.7531 24.753C27.4918 22.0143 29 18.373 29 14.5C29 10.627 27.4918 6.98566 24.7531 4.24697V4.24697Z" fill="#4301FE"/>
<path d="M20.5729 14.1886C20.5729 14.0624 20.5384 13.9408 20.4773 13.8342L15.125 4.17065C14.9991 3.94352 14.7596 3.80243 14.5 3.80243C14.2403 3.80243 14.0009 3.94352 13.875 4.17071L8.52215 13.835C8.36825 14.0858 8.40388 14.5376 8.7316 14.7737L14.09 18.5283C14.2024 18.6071 14.3326 18.6493 14.4643 18.6559C14.4761 18.6569 14.4879 18.6577 14.5 18.6577C14.6475 18.6577 14.7893 18.6129 14.91 18.5283L20.2683 14.7738C20.459 14.6402 20.5729 14.4214 20.5729 14.1886V14.1886ZM18.8255 12.5925L14.9205 9.85629L14.9199 5.54107L18.8255 12.5925ZM12.811 11.26C12.6773 11.0693 12.4144 11.0229 12.2237 11.1566L10.1745 12.5925L14.0764 5.54764L14.0781 17.4901L9.36626 14.1886L12.7076 11.8473C12.8984 11.7137 12.9447 11.4507 12.811 11.26V11.26ZM14.9216 17.4903L14.9207 10.8862L19.6337 14.1886L14.9216 17.4903Z" fill="#4301FE"/>
<path d="M19.1697 16.6403L14.5 19.9123L9.83032 16.6403C9.6412 16.5078 9.3841 16.5288 9.21905 16.6901C9.05395 16.8514 9.02704 17.1079 9.15511 17.3001L13.9056 24.4252C14.0293 24.6107 14.2309 24.7252 14.4514 24.7402C14.6759 24.754 14.9096 24.6763 15.0945 24.4251L19.8449 17.3001C19.9731 17.1079 19.9461 16.8514 19.7809 16.6901C19.6156 16.5287 19.3585 16.5078 19.1697 16.6403V16.6403ZM10.9288 18.4399L14.0783 20.6467V23.1637L10.9288 18.4399ZM14.9217 23.1638V20.6467L18.0712 18.4399L14.9217 23.1638Z" fill="#4301FE"/>
</svg>
