<svg width="54" height="60" viewBox="0 0 54 60" fill="none" xmlns="http://www.w3.org/2000/svg">
<path d="M1.90735e-06 43L1.90735e-06 50L16 59L42.1017 59C49.9957 57.2877 51.7298 52.4945 54 43L1.90735e-06 43Z" fill="url(#paint0_linear)"/>
<path d="M1.90735e-06 38L1.20797e-06 22L22.2949 22C33.8387 23.1691 38 38 37 38C36 38 1.90735e-06 38 1.90735e-06 38Z" fill="url(#paint1_linear)"/>
<path d="M9.34601e-05 6.38327e-05L16.0001 6.38327e-05L16.0001 38.0001C15.2526 50.5267 18.8649 53.4584 25.0001 59.0001C23.0503 59.5268 6.5133e-05 60.5001 9.83578e-05 49.5001C0.000131583 38.5001 9.34601e-05 6.38327e-05 9.34601e-05 6.38327e-05Z" fill="url(#paint2_linear)"/>
<path d="M1.90735e-06 16L1.20797e-06 9.53674e-07L42.098 1.02086e-06C49.9913 1.7123 51.7252 6.50545 53.9952 16L1.90735e-06 16Z" fill="url(#paint3_linear)"/>
<path d="M2.46314e-07 22L4.56946e-07 -3.05176e-05C9.01098 2.49411 14.2197 3.67957 16 16L16 38C11.3777 27.6873 7.96005 23.9682 2.46314e-07 22Z" fill="url(#paint4_linear)"/>
<defs>
<linearGradient id="paint0_linear" x1="54" y1="51" x2="7.77966" y2="51" gradientUnits="userSpaceOnUse">
<stop stop-color="#FDF7F7"/>
<stop offset="1" stop-color="#575757"/>
</linearGradient>
<linearGradient id="paint1_linear" x1="37" y1="30" x2="5.33051" y2="30" gradientUnits="userSpaceOnUse">
<stop stop-color="#FDF7F7"/>
<stop offset="1" stop-color="#ABA3A3"/>
</linearGradient>
<linearGradient id="paint2_linear" x1="12.5" y1="59.0001" x2="12.5" y2="11.5001" gradientUnits="userSpaceOnUse">
<stop stop-color="#FDF7F7"/>
<stop offset="1" stop-color="#525050"/>
</linearGradient>
<linearGradient id="paint3_linear" x1="53.9952" y1="8" x2="7.77898" y2="8" gradientUnits="userSpaceOnUse">
<stop stop-color="#FDF7F7"/>
<stop offset="1" stop-color="#575757"/>
</linearGradient>
<linearGradient id="paint4_linear" x1="30.1984" y1="8" x2="4.35062" y2="8" gradientUnits="userSpaceOnUse">
<stop stop-color="#EBEAEA"/>
<stop offset="1" stop-color="#DAD6D6"/>
</linearGradient>
</defs>
</svg>
