<svg width="233" height="232" viewBox="0 0 233 232" fill="none" xmlns="http://www.w3.org/2000/svg">
<ellipse cx="116.5" cy="116" rx="116.5" ry="116" fill="#F8F4FF"/>
<path d="M70 54L70 176" stroke="#6100FF" stroke-width="24" stroke-linecap="round"/>
<path d="M70.8899 42C64.2625 42 58.8899 47.3726 58.8899 54C58.8899 60.6274 64.2625 66 70.8899 66V42ZM163 66C169.627 66 175 60.6274 175 54C175 47.3726 169.627 42 163 42V66ZM70.8899 66H163V42H70.8899V66Z" fill="#6100FF"/>
<path d="M70 177H163" stroke="#6100FF" stroke-width="24" stroke-linecap="round"/>
<path d="M130.072 127C136.699 127 142.072 121.627 142.072 115C142.072 108.373 136.699 103 130.072 103V127ZM74.0049 127H130.072V103H74.0049V127Z" fill="#6100FF"/>
<circle cx="161" cy="54" r="7" fill="white"/>
<circle cx="161" cy="177" r="7" fill="#FFF7F7"/>
<circle cx="128" cy="115" r="7" fill="white"/>
<path d="M69.9857 51.4C68.5498 51.4079 67.3922 52.5784 67.4 54.0143C67.4079 55.4502 68.5784 56.6079 70.0143 56.6L69.9857 51.4ZM160.986 50.9L69.9857 51.4L70.0143 56.6L161.014 56.1L160.986 50.9Z" fill="#FFFCFC"/>
<path d="M72.5 55C72.5 53.3431 71.1568 52 69.5 52C67.8431 52 66.5 53.3431 66.5 55L72.5 55ZM66.5 176C66.5 177.657 67.8431 179 69.5 179C71.1569 179 72.5 177.657 72.5 176L66.5 176ZM66.5 55L66.5 176L72.5 176L72.5 55L66.5 55Z" fill="white"/>
<path d="M70 174C68.3431 174 67 175.343 67 177C67 178.657 68.3431 180 70 180V174ZM70 180H163V174H70V180Z" fill="white"/>
<line x1="71" y1="115" x2="130" y2="115" stroke="white" stroke-width="6"/>
</svg>
